<?xml version="1.0" encoding="UTF-8" standalone="no"?>
<svg
   xmlns:dc="http://purl.org/dc/elements/1.1/"
   xmlns:cc="http://creativecommons.org/ns#"
   xmlns:rdf="http://www.w3.org/1999/02/22-rdf-syntax-ns#"
   xmlns:svg="http://www.w3.org/2000/svg"
   xmlns="http://www.w3.org/2000/svg"
   xmlns:sodipodi="http://sodipodi.sourceforge.net/DTD/sodipodi-0.dtd"
   xmlns:inkscape="http://www.inkscape.org/namespaces/inkscape"
   viewBox="0 0 32 32"
   version="1.1"
   id="svg13"
   sodipodi:docname="disabilitas.svg"
   inkscape:version="1.0.1 (3bc2e813f5, 2020-09-07)">
  <metadata
     id="metadata17">
    <rdf:RDF>
      <cc:Work
         rdf:about="">
        <dc:format>image/svg+xml</dc:format>
        <dc:type
           rdf:resource="http://purl.org/dc/dcmitype/StillImage" />
      </cc:Work>
    </rdf:RDF>
  </metadata>
  <sodipodi:namedview
     pagecolor="#ffffff"
     bordercolor="#666666"
     borderopacity="1"
     objecttolerance="10"
     gridtolerance="10"
     guidetolerance="10"
     inkscape:pageopacity="0"
     inkscape:pageshadow="2"
     inkscape:window-width="1920"
     inkscape:window-height="1013"
     id="namedview15"
     showgrid="false"
     inkscape:zoom="19.625"
     inkscape:cx="16"
     inkscape:cy="16"
     inkscape:window-x="0"
     inkscape:window-y="0"
     inkscape:window-maximized="1"
     inkscape:current-layer="svg13" />
  <defs
     id="defs4">
    <style
       id="style2">.cls-1{fill:#747987;}</style>
  </defs>
  <title
     id="title6">Disability Sign</title>
  <g
     id="Layer_4"
     data-name="Layer 4"
     style="fill:#ffffff">
    <path
       class="cls-1"
       d="M11.92,27.82h.18a8.4,8.4,0,0,0,7.82-5.37,1,1,0,0,0-.58-1.29,1,1,0,0,0-1.29.58A6.37,6.37,0,0,1,5.74,19.32a6.33,6.33,0,0,1,3.62-5.61,1,1,0,1,0-.86-1.8,8.36,8.36,0,0,0,3.42,15.91Z"
       id="path8"
       style="fill:#ffffff" />
    <path
       class="cls-1"
       d="M27.26,22.8H24.5L20.62,17a1,1,0,0,0-.83-.45H13.27V14.37H17a1,1,0,0,0,0-2H13.27V9.8a2.91,2.91,0,1,0-2,0v7.76a1,1,0,0,0,1,1h7l3.88,5.8a1,1,0,0,0,.83.44h3.29a1,1,0,0,0,0-2Z"
       id="path10"
       style="fill:#ffffff" />
  </g>
</svg>
